<?xml version="1.0" standalone="no"?>
<!DOCTYPE svg PUBLIC "-//W3C//DTD SVG 20010904//EN"
 "http://www.w3.org/TR/2001/REC-SVG-20010904/DTD/svg10.dtd">
<svg version="1.0" xmlns="http://www.w3.org/2000/svg"
 width="100.000000pt" height="100.000000pt" viewBox="0 0 100.000000 100.000000"
 preserveAspectRatio="xMidYMid meet">

<g transform="translate(0.000000,100.000000) scale(0.100000,-0.100000)"
fill="#000000" stroke="none">
<path d="M636 761 c-11 -12 -25 -17 -38 -13 -16 4 -29 -4 -51 -29 -16 -19 -27
-29 -24 -23 6 11 -113 54 -151 54 -21 0 -22 -3 -22 -124 l0 -125 100 -32 99
-33 -62 -19 -62 -20 30 -13 c46 -20 19 -16 -55 7 l-67 22 -61 -24 c-33 -13
-59 -26 -57 -29 2 -3 38 -17 79 -30 42 -13 76 -27 76 -31 0 -4 -12 -14 -27
-21 -15 -7 -29 -21 -31 -31 -6 -32 17 -47 72 -45 l51 1 -55 6 c-47 5 -55 9
-58 28 -2 17 6 26 35 39 21 10 44 26 51 36 16 21 35 23 51 4 6 -7 22 -11 36
-8 18 3 27 -1 32 -14 4 -11 13 -24 21 -30 25 -19 10 -48 -28 -55 l-35 -6 31
-2 c37 -1 59 20 51 49 -4 16 1 23 21 31 69 25 70 25 22 42 -30 10 -37 16 -23
16 33 1 106 32 96 41 -4 4 -25 13 -46 20 -21 7 -37 14 -34 16 2 2 30 -5 63
-16 32 -11 64 -18 71 -16 9 4 13 34 13 111 l0 105 28 0 c31 0 62 26 62 52 0
18 -70 78 -90 78 -7 0 -21 11 -32 25 -23 30 -58 32 -82 6z m72 -3 c7 -7 12
-20 12 -29 0 -13 6 -16 21 -12 13 4 27 0 33 -8 6 -8 20 -19 31 -25 42 -24 25
-74 -25 -74 -15 0 -30 6 -33 14 -6 15 -172 70 -186 62 -4 -3 -8 4 -7 16 1 30
31 46 56 30 16 -10 20 -10 20 1 0 19 21 37 45 37 12 0 26 -5 33 -12z m-304
-30 c-4 -6 2 -7 16 -3 17 5 21 4 15 -6 -6 -9 -2 -11 13 -7 14 4 20 2 15 -5 -4
-6 2 -8 15 -5 12 4 20 3 17 -1 -6 -11 73 -33 87 -25 7 5 8 3 3 -6 -6 -10 -3
-12 13 -8 14 4 20 2 15 -5 -4 -6 2 -8 17 -4 21 5 22 5 8 -10 -15 -14 -23 -13
-92 10 -42 14 -74 22 -72 18 3 -4 32 -16 66 -26 33 -10 60 -21 60 -24 0 -3
-35 -28 -78 -54 -70 -42 -82 -46 -106 -37 -18 6 -25 6 -21 0 3 -6 14 -10 23
-10 11 0 13 -3 5 -11 -5 -5 -22 -7 -37 -3 l-26 6 0 112 0 111 25 1 c14 1 22
-2 19 -8z m336 -218 c0 -67 -4 -110 -10 -110 -6 0 -10 43 -10 110 0 67 4 110
10 110 6 0 10 -43 10 -110z m-153 -94 c4 -7 26 -19 48 -26 l40 -13 -30 -13
c-41 -18 -52 -17 -126 8 l-64 22 34 13 c19 8 43 12 53 10 10 -3 18 -1 18 4 0
14 18 11 27 -5z m-182 -36 c32 -11 66 -18 75 -15 9 3 34 -2 56 -10 36 -14 32
-14 -36 0 -14 3 6 -6 44 -20 38 -13 71 -27 73 -29 2 -2 -12 -9 -32 -16 -33
-11 -38 -10 -51 9 -9 12 -26 21 -39 21 -13 0 -27 5 -30 10 -9 15 -46 12 -65
-5 -15 -13 -23 -13 -81 6 -35 12 -68 25 -72 29 -8 7 61 37 89 39 6 1 37 -8 69
-19z"/>
</g>
</svg>
